<svg width="228.4411865234375px" height="122.021240234375px" xmlns="http://www.w3.org/2000/svg" viewBox="135.77940673828124 13.9893798828125 228.4411865234375 122.021240234375" style="background: rgb(255, 255, 255);" preserveAspectRatio="xMidYMid"><defs><filter id="editing-hover" x="-100%" y="-100%" width="300%" height="300%"><feFlood flood-color="rgba(1.9607843137254888%,16.862745098039188%,29.01960784313726%,0.14)" result="flood"></feFlood><feComposite operator="in" in2="SourceAlpha" in="flood" result="shadow"></feComposite><feOffset dx="-4" dy="-4" in="SourceGraphic" result="offset-1"></feOffset><feOffset dx="4" dy="4" in="shadow" result="offset-2"></feOffset><feMerge><feMergeNode in="offset-2"></feMergeNode><feMergeNode in="offset-1"></feMergeNode></feMerge></filter></defs><g filter="url(#editing-hover)"><g transform="translate(175.10218632221222, 96.75218772888184)"><path d="M6.53 0L-0.83 0L10.75-42.24L24.13-42.24L27.07-18.11L38.98-42.24L50.18-42.24L51.33-10.62L51.33-10.62Q51.58-4.35 54.66-2.43L54.66-2.43L54.66-2.43Q53.95-1.15 51.90 0.06L51.90 0.06L51.90 0.06Q49.86 1.28 47.14 1.28L47.14 1.28L47.14 1.28Q44.42 1.28 42.82 0.51L42.82 0.51L42.82 0.51Q41.22-0.26 40.32-1.54L40.32-1.54L40.32-1.54Q38.72-3.84 38.72-8.26L38.72-8.26L38.72-28.03L26.11 0L18.18 0L13.70-28.74L6.53 0ZM62.85 0L55.49 0L67.07-42.24L80.45-42.24L83.39-18.11L95.30-42.24L106.50-42.24L107.65-10.62L107.65-10.62Q107.90-4.35 110.98-2.43L110.98-2.43L110.98-2.43Q110.27-1.15 108.22 0.06L108.22 0.06L108.22 0.06Q106.18 1.28 103.46 1.28L103.46 1.28L103.46 1.28Q100.74 1.28 99.14 0.51L99.14 0.51L99.14 0.51Q97.54-0.26 96.64-1.54L96.64-1.54L96.64-1.54Q95.04-3.84 95.04-8.26L95.04-8.26L95.04-28.03L82.43 0L74.50 0L70.02-28.74L62.85 0ZM141.82 1.28L141.82 1.28L141.82 1.28Q133.63 1.28 132.86-10.37L132.86-10.37L121.86-10.37L121.86-10.37Q120.58-7.42 119.68-4.86L119.68-4.86L118.02 0L109.06 0L129.22-42.24L142.98-42.24L145.66-11.14L145.66-11.14Q146.30-4.42 148.86-2.43L148.86-2.43L148.86-2.43Q147.01 1.28 141.82 1.28ZM127.36-23.17L123.84-15.04L132.67-15.04L131.90-31.49L131.90-33.22L127.36-23.17Z" fill="#e18514"></path></g></g><style>text {
  font-size: 64px;
  font-family: Arial Black;
  dominant-baseline: central;
  text-anchor: middle;
}</style></svg>